HIERARCHY
ROOT pelvis
{
	OFFSET 0.000000 0.000000 0.000000
	CHANNELS 6 Xposition Yposition Zposition Zrotation Xrotation Yrotation
	JOINT lfemur
	{
		OFFSET 11.446000 0.000000 0.000000
		CHANNELS 3 Zrotation Xrotation Yrotation
		JOINT ltibia
		{
			OFFSET 0.000000 -42.030400 0.000000
			CHANNELS 3 Zrotation Xrotation Yrotation
			JOINT lfoot
			{
				OFFSET 0.000000 -39.930200 0.000000
				CHANNELS 3 Zrotation Xrotation Yrotation
				JOINT ltoes
				{
					OFFSET 0.000000 0.000000 11.775800
					CHANNELS 3 Zrotation Xrotation Yrotation
					End Site
					{
					    OFFSET 0.000000 0.000000 5.000000
					}
				}
			}
		}
	}
	JOINT rfemur
	{
		OFFSET -11.446000 0.000000 0.000000
		CHANNELS 3 Zrotation Xrotation Yrotation
		JOINT rtibia
		{
			OFFSET 0.000000 -42.030400 0.000000
			CHANNELS 3 Zrotation Xrotation Yrotation
			JOINT rfoot
			{
				OFFSET 0.000000 -39.930200 0.000000
				CHANNELS 3 Zrotation Xrotation Yrotation
				JOINT rtoes
				{
					OFFSET 0.000000 0.000000 11.775800
					CHANNELS 3 Zrotation Xrotation Yrotation
					End Site
					{
					    OFFSET 0.000000 0.000000 5.000000
					}
				}
			}
		}
	}
	JOINT thorax
	{
		OFFSET 0.000000 11.255600 -5.000000
		CHANNELS 3 Zrotation Xrotation Yrotation
		JOINT head
		{
			OFFSET 0.000000 43.799300 0.000000
			CHANNELS 3 Zrotation Xrotation Yrotation
			End Site
			{
			    OFFSET 0.000000 5.000000 0.000000
			}
		}
		JOINT lclavicle
		{
			OFFSET 0.000000 39.863000 0.000000
			CHANNELS 3 Zrotation Xrotation Yrotation
			JOINT lhumerus
			{
				OFFSET 17.380600 4.958300 0.000000
				CHANNELS 3 Zrotation Xrotation Yrotation
				JOINT lradius
				{
					OFFSET 0.000000 -27.561300 0.000000
					CHANNELS 3 Zrotation Xrotation Yrotation
					JOINT lhand
					{
						OFFSET 0.000000 -26.933000 0.000000
						CHANNELS 3 Zrotation Xrotation Yrotation
						End Site
						{
						    OFFSET 0.000000 -5.000000 0.000000
						}
					}
				}
			}
		}
		JOINT rclavicle
		{
			OFFSET 0.000000 39.863000 0.000000
			CHANNELS 3 Zrotation Xrotation Yrotation
			JOINT rhumerus
			{
				OFFSET -17.380600 4.958300 0.000000
				CHANNELS 3 Zrotation Xrotation Yrotation
				JOINT rradius
				{
					OFFSET 0.000000 -27.561300 0.000000
					CHANNELS 3 Zrotation Xrotation Yrotation
					JOINT rhand
					{
						OFFSET 0.000000 -26.933000 0.000000
						CHANNELS 3 Zrotation Xrotation Yrotation
						End Site
						{
						    OFFSET 0.000000 -5.000000 0.000000
						}
					}
				}
			}
		}
	}
}
MOTION
Frames:	6
Frame Time:	0.0333333
48.687400 87.356500 6.413700 -3.165696 -3.572524 -88.083591 -6.956756 2.011838 -9.750141 0.000000 13.114119 0.000000 -0.000000 4.465401 6.627660 -0.000000 -0.667070 -0.000000 -3.633975 -0.981236 -4.932704 -0.000000 19.188375 0.000000 -0.000000 -1.167149 1.287317 -0.000000 -29.541244 -0.000000 -7.590916 -6.468839 6.807616 21.789295 26.451195 -3.025019 6.575464 0.000000 -17.220915 83.914257 10.130372 52.010654 0.000001 -15.121647 -55.827559 9.782353 -0.001174 -0.000000 -6.875915 -0.000000 -2.597371 -73.691111 9.922955 -65.674788 -0.000001 -19.070262 41.319022 -8.478208 -0.535913 -0.000000 
48.668500 87.330200 6.745000 -2.796257 -3.510302 -88.536005 -7.138787 1.990887 -9.410439 -0.000000 12.538324 0.000000 0.000000 2.910378 6.201293 -0.000000 -1.410004 -0.000000 -3.902348 -1.586836 -4.917857 0.000000 19.501000 -0.000000 -0.000000 -1.163310 1.804729 -0.000000 -29.542326 -0.000000 -6.572589 1.531708 -0.540387 21.678097 24.808296 -3.257313 2.429361 -0.000000 3.488688 88.801990 -6.245442 62.745915 0.000001 -11.473234 -58.675334 12.946538 1.902491 0.000000 -3.293561 -0.000000 -2.683863 -77.292973 1.607236 -68.618043 0.000000 -21.358790 40.988411 -10.629305 0.204391 0.000000 
48.681600 87.329000 6.761900 -2.730710 -3.523903 -88.419840 -7.154770 1.927449 -9.493313 0.000000 12.511133 -0.000000 0.000000 2.941877 6.158277 -0.000000 -1.410813 -0.000000 -3.924234 -1.671703 -4.950779 -0.000000 19.584634 -0.000000 -0.000000 -1.217309 1.772623 -0.000000 -29.541893 -0.000000 -6.643065 1.491845 -0.536137 21.892229 24.586831 -3.408040 2.436080 0.000000 3.458003 88.819135 -6.225838 62.915463 0.000001 -11.438086 -58.879003 13.075548 1.978979 -0.000000 -3.335327 0.000000 -2.678342 -77.235879 1.787368 -68.442100 -0.000001 -21.309256 40.667463 -10.632744 0.205057 0.000000 
48.687600 87.307600 6.799300 -2.731435 -3.600771 -88.290891 -7.249857 1.864646 -9.483043 -0.000000 12.618292 -0.000000 -0.000000 2.940718 6.018356 0.000000 -1.410016 -0.000000 -4.038270 -1.779886 -5.052979 0.000000 19.851474 -0.000000 -0.000000 -1.323005 1.722019 0.000000 -29.542169 0.000000 -6.743860 1.550075 -0.583560 21.939807 24.440678 -3.376916 2.308974 0.000000 3.497646 89.002711 -6.294941 63.424510 -0.000000 -11.226031 -59.318574 13.303015 1.875049 -0.000000 -3.541381 0.000000 -2.610383 -76.921570 1.964154 -68.665100 -0.000001 -21.438083 40.521167 -10.332274 0.103724 0.000000 
48.688000 87.278500 6.832300 -2.789281 -3.671660 -88.249800 -7.342770 1.862899 -9.453219 -0.000000 12.749942 0.000000 0.000000 2.841627 5.973804 -0.000000 -1.412494 -0.000000 -4.129753 -1.834665 -5.037173 -0.000000 20.097073 -0.000000 0.000000 -1.503183 1.676119 -0.000000 -29.542384 -0.000000 -6.858289 1.661903 -0.590737 21.960390 24.343905 -3.294136 2.187569 -0.000000 3.747453 89.050944 -6.417193 63.335954 -0.000001 -11.366853 -59.054292 13.221946 1.942365 -0.000000 -3.483844 -0.000000 -2.653407 -76.955804 1.955555 -68.458930 -0.000000 -21.531044 40.472620 -10.385883 0.121068 -0.000000 
48.696700 87.280200 6.870100 -2.698980 -3.630034 -88.219258 -7.323430 1.715347 -9.388385 -0.000000 12.837243 -0.000000 0.000000 2.778239 5.887156 -0.000000 -1.410867 -0.000000 -4.112479 -1.879016 -5.056381 -0.000000 19.998475 -0.000000 -0.000000 -1.410222 1.693412 0.000000 -29.542186 -0.000000 -6.803982 1.603496 -0.530720 21.954813 24.251934 -3.239498 2.076553 -0.000000 3.693462 88.893501 -6.231684 63.101644 -0.000001 -11.445413 -59.040165 13.461033 2.059751 0.000000 -3.429114 -0.000000 -2.526523 -77.030198 2.290722 -68.023074 -0.000001 -21.628936 40.452753 -10.553763 0.178601 -0.000000 
